<svg xmlns="http://www.w3.org/2000/svg" width="330" height="69"><title>logo</title><desc>Created with Sketch.</desc><g fill="none"><g><g><g><g><path id="Shape" fill="#010202" d="M9.55 4c-.83.14-1.7.3-2.52.43V3.2c.18-.03.32-.07.5-.1.83-.15 2.2-.6 2.45-1.95.43-.07.9-.14 1.33-.2V9.5c-.56.08-1.14.2-1.75.26V4zm6.77.4c-.86-.22-1.4-.73-1.4-1.63 0-1.22.9-2.4 3.6-2.6 2.7-.13 3.6.9 3.6 2.14 0 .9-.54 1.48-1.4 1.77 0 0 0 0 0 .04 1.26.26 1.8 1.12 1.8 2.13 0 .98-.65 2.6-4 2.78-3.35.22-4-1.3-4-2.26.03-1 .54-1.9 1.8-2.34zm2.23 3.35c1.4-.08 2.1-.7 2.1-1.52 0-.86-.66-1.4-2.1-1.33-1.4.1-2.1.72-2.1 1.58 0 .83.66 1.34 2.1 1.27zm1.77-5.23c0-.72-.6-1.08-1.77-1-1.2.07-1.8.5-1.8 1.22 0 .68.6 1 1.8.93 1.16-.07 1.77-.46 1.77-1.15zM24.5.22c2.56 0 5.08.1 7.6.32v1.48c-1.62 1.65-3.6 4.25-3.96 6.7-.72-.04-1.4-.04-2.13-.07.26-2.35 2.7-5.44 4.3-6.8-1.9-.12-3.86-.2-5.77-.2C24.5 1.2 24.5.7 24.5.23zm9.44 8.93c0-2.16 1.62-3.03 3.38-3.53 1.8-.5 2.5-.65 2.5-1.62 0-1.05-1.06-1.6-1.74-1.7-1.33-.17-2.02.44-2.1 1.52-.6-.07-1.2-.15-1.83-.22 0-2.1 1.62-2.95 3.7-2.63 1.96.3 3.8 1.4 3.8 3.5 0 1.4-1.2 1.9-2.5 2.2-1.3.32-2.7.46-3.16 1.3 1.86.24 3.74.53 5.6.9v1.36c-2.55-.43-5.1-.8-7.66-1.08z"/><path id="Shape" fill="#000" d="M222.25 57.57h2v5.73c0 1.4.1 3.1 2.72 3.1 2.66 0 2.7-1.7 2.7-3.1v-5.73h2.02v5.8c0 1.7-.1 4.65-4.73 4.65-4.65 0-4.72-3-4.72-4.65v-5.8zM234.93 57.57h2.34L243 65.2h.03v-7.63h1.95v10.16h-2.27l-5.8-7.64h-.03v7.63h-1.94zM248.94 57.57h2.02v10.16h-2.02zM253.1 57.57h2.26l3.13 8.14 3.1-8.13h2.2l-4.27 10.16h-2.16zM265.9 57.57h8.4v1.6h-6.34v2.54h6.1v1.6h-6.1v2.8h6.45v1.6h-8.5V57.56zM277.9 57.57h6.13c2.45 0 3.24 1.2 3.24 2.77 0 1.34-.68 2.17-1.58 2.45v.03c1.14.25 1.4 1.3 1.4 2.74 0 .47 0 1.62.4 2.16h-2.2c-.15-.3-.26-.8-.26-1.55 0-1.44-.18-2.5-1.7-2.5h-3.4v4h-2.03V57.6zm5.52 4.54c1.12 0 1.73-.35 1.73-1.47 0-1.04-.65-1.47-1.73-1.47h-3.5v2.95h3.5zM294.62 57.28c1.48 0 4.47.3 4.72 3.24h-2.2c-.07-.8-.75-1.62-2.44-1.62-1.37 0-2.24.44-2.24 1.4 0 2.4 7.2.12 7.2 4.44 0 2.63-2.6 3.3-4.64 3.3-3.46 0-4.86-1.43-4.9-3.55h2.2c.03 1.32 1.12 1.97 2.77 1.97 1.22 0 2.37-.4 2.37-1.48 0-2.53-7.1-.33-7.1-4.5 0-2.35 1.9-3.22 4.25-3.22zM302.87 57.57h2.02v10.16h-2.03zM310.87 59.16h-3.64v-1.6h9.26v1.6h-3.65v8.57h-2v-8.57zM322 63.84l-4.2-6.3h2.48l2.77 4.53 2.77-4.54h2.5l-4.23 6.3v3.86h-2.02v-3.86zM86.32.86h5.94c2.38 0 3.14 1.52 3.14 3.17 0 1.55-.94 3.14-3.1 3.14h-3.96v3.85h-2.02V.86zm2.02 4.7h3.24c1.15 0 1.76-.34 1.76-1.56 0-1.26-.82-1.55-1.62-1.55H88.3v3.1h.04zM98.17.86h6.13c2.45 0 3.24 1.2 3.24 2.78 0 1.33-.7 2.16-1.6 2.45v.02c1.17.26 1.42 1.3 1.42 2.74 0 .47 0 1.62.4 2.16h-2.2c-.15-.28-.25-.8-.25-1.55 0-1.44-.17-2.48-1.7-2.48h-3.45v4h-2V.85h.02zm5.55 4.54c1.12 0 1.73-.36 1.73-1.47 0-1.05-.65-1.48-1.73-1.48h-3.5V5.4h3.5zM111.8.86h2v10.16h-2zM118.42.86h8.03v1.6h-6V5h5.68v1.6h-5.7V11h-2zM132.18 7.13l-4.2-6.3h2.47l2.78 4.54L136 .83h2.5l-4.23 6.3V11h-2.02V7.12zM144.4.58c1.47 0 4.46.28 4.7 3.24h-2.18c-.08-.8-.76-1.62-2.45-1.62-1.37 0-2.24.43-2.24 1.4 0 2.38 7.2.1 7.2 4.43 0 2.63-2.6 3.32-4.64 3.32-3.47 0-4.87-1.44-4.9-3.57h2.2c.02 1.33 1.1 1.98 2.76 1.98 1.23 0 2.38-.4 2.38-1.47 0-2.54-7.1-.34-7.1-4.52 0-2.34 1.9-3.2 4.25-3.2zM162.95 11.02h-1.2l-.28-1.33c-.8 1-2.16 1.6-3.67 1.6-4.08 0-5.7-2.5-5.7-5.36 0-2.84 1.7-5.36 5.62-5.36 2.92 0 4.83 1.55 5.05 3.56h-2.2c-.36-1.37-1.6-1.94-2.88-1.94-2.5 0-3.47 1.62-3.47 3.85 0 2.7 1.66 3.7 3.35 3.7 2.05 0 3.03-1 3.35-2.65h-2.74V5.5h4.75v5.52zM165.72 5.94c0-2.84 1.6-5.36 5.7-5.36 4.06 0 5.7 2.48 5.7 5.36 0 2.85-1.6 5.37-5.7 5.37-4.1-.02-5.7-2.5-5.7-5.36zm9.26 0c0-2.23-1.3-3.78-3.57-3.78-2.26 0-3.55 1.55-3.55 3.78 0 2.24 1.3 3.8 3.56 3.8 2.28-.05 3.58-1.56 3.58-3.8zM179.84.86h2.02v8.47h5.87v1.7h-7.9zM85.63 31.16c0-5.62 0-6.66-.07-7.8-.07-1.24-.3-1.92-1.55-2.1-.27-.04-.92-.08-1.28-.08-.15 0-.3-.07-.3-.2 0-.23.2-.3.62-.3 1.7 0 4.14.07 4.36.07.9 0 2.63-.07 4.4-.07 6.26 0 7.9 3.64 7.9 5.55 0 2.84-1.9 4.64-3.8 6.37 2.85.87 6.63 3.46 6.63 7.57 0 4.03-3.02 8.07-9.44 8.07-.7 0-2.06-.04-3.25-.14-1.2-.04-2.27-.08-2.45-.08-.07 0-.76.04-1.55.04-.76.04-1.66.07-2.27.07-.4 0-.6-.07-.6-.3 0-.13.06-.2.28-.2.32 0 .83-.15 1.15-.18.73-.15.8-.94.98-2.02.22-1.48.22-4.36.22-7.85v-6.42h.03zm3.25.76c0 .25.07.32.25.4.22.03.9.18 2.3.18 2.1 0 2.92-.08 3.68-.94.84-.9 1.45-2.13 1.45-3.9 0-2.77-1.55-5.83-5.3-5.83-.43 0-1.33.04-1.9.18-.33.08-.47.2-.47.4v9.52zm0 4c0 2.8 0 7.17.03 7.7.16 1.77.16 2.17 1.3 2.75 1.02.46 2.6.5 3.3.5 2.47 0 5.5-.94 5.5-5.58 0-1.63-.65-4.77-3.6-6.64-1.3-.83-2.5-.76-3.4-.94-.46-.07-2.33-.07-2.94-.07-.15 0-.22.07-.22.25v2.02h.04zM109.02 31.16c0-5.62 0-6.66-.08-7.8-.07-1.24-.28-1.85-1.55-2.03-.3-.04-.94-.07-1.3-.07-.15 0-.3-.18-.3-.3 0-.2.2-.28.62-.28 1.7 0 4.15.07 4.36.07.25 0 8.1.04 8.97 0 .72-.03 1.4-.18 1.7-.2.18-.05.32-.2.5-.2.14 0 .18.2.18.37 0 .25-.22.68-.3 1.7-.02.35-.13 1.93-.2 2.37-.04.17-.18.38-.33.38-.22 0-.3-.18-.3-.47 0-.24-.02-.85-.2-1.28-.26-.62-.65-.87-2.7-1.12-.65-.07-5-.14-5.4-.14-.2 0-.23.14-.23.4v9.86c0 .26 0 .4.22.4.46 0 5.4 0 6.26-.07.9-.07 1.44-.15 1.84-.5.25-.26.43-.47.54-.47.14 0 .2.07.2.28 0 .22-.2.83-.27 2.02-.08.72-.2 2.1-.2 2.34 0 .3-.06.7-.3.7-.2 0-.26-.12-.26-.34 0-.36 0-.72-.17-1.2-.15-.5-.47-.92-1.9-1.1-1.02-.15-5.05-.18-5.7-.18-.22 0-.26.14-.26.25v3.03c0 1.22-.03 5.47 0 6.2.08 2.4.76 2.9 4.47 2.9.97 0 2.78 0 3.75-.4.96-.42 1.47-1.07 1.68-2.5.07-.44.18-.55.4-.55.2 0 .25.3.25.54 0 .25-.3 2.74-.5 3.5-.26.93-.65.93-2.1.93-2.8 0-5-.07-6.5-.14-1.6-.07-2.57-.07-3.1-.07-.08 0-.84 0-1.63.02-.72.04-1.6.08-2.17.08-.4 0-.6-.08-.6-.3 0-.14.06-.28.28-.28.33 0 .84-.15 1.16-.18.72-.15.83-.87.98-1.9.2-1.5.2-4.37.2-7.86v-6.42h-.02zM158.08 48.02h-6.52c-2.12 0-3.06-.2-4-.72-1.62-.86-3-2.6-5.1-5.33-1.6-1.94-3.25-4.32-4.05-5.3-.17-.18-.24-.2-.5-.2l-4.75-.08c-.18 0-.25.06-.25.27v.87c0 3.5 0 6.3.18 7.78.15 1.08.33 1.77 1.48 1.9.5.08 1.33.2 1.66.2.25 0 .28.17.28.28 0 .18-.18.3-.6.3-2.06 0-4.44-.16-4.62-.16-.04 0-2.56.15-3.7.15-.4 0-.62-.08-.62-.3 0-.15.07-.3.3-.3.3 0 .78-.06 1.14-.17.72-.18.8-.86.97-1.9.22-1.5.22-4.37.22-7.86V31.1c0-5.63 0-6.67-.08-7.8-.08-1.22-.3-1.83-1.55-2-.3-.04-.94-.08-1.3-.08-.15 0-.3-.18-.3-.3 0-.2.2-.28.62-.28 1.7 0 4.2.08 4.42.08.4 0 3.54-.08 4.7-.08 2.37 0 5.03.22 6.98 1.6.93.67 2.6 2.4 2.6 4.92 0 2.67-1.13 5.3-4.62 8.25 3.06 3.83 5.66 7.15 7.85 9.38 2.02 2.05 3.25 2.38 4.18 2.52.73.15 4.34.1 4.52.1l.46.62zm-25.2-13.83c0 .2.06.35.24.46.54.3 2.48.54 4.14.54.9 0 1.9-.04 2.8-.65 1.3-.87 2.28-2.77 2.28-5.55 0-4.5-2.5-7.13-6.48-7.13-1.12 0-2.3.14-2.67.2-.2.1-.3.23-.3.45V34.2h-.03zM175.1 47.6c-.52-.26-.55-.4-.55-1.38 0-1.8.18-3.24.2-3.85 0-.4.1-.62.3-.62.22 0 .36.15.36.44 0 .28 0 .82.16 1.32.6 2.63 3.42 3.57 5.94 3.57 3.7 0 5.62-2.1 5.62-4.84 0-2.6-1.4-3.86-4.72-6.3l-1.7-1.3c-4.06-3.03-5.36-5.26-5.36-7.78 0-4.26 3.4-6.85 8.32-6.85 1.48 0 3 .22 3.9.43.7.18 1 .18 1.33.18.27 0 .38.04.38.26 0 .18-.18 1.36-.18 3.85 0 .54-.03.8-.3.8-.24 0-.27-.2-.3-.48-.05-.43-.37-1.4-.55-1.8-.25-.43-1.48-1.8-4.86-1.8-2.75 0-5.02 1.37-5.02 3.93 0 2.3 1.15 3.64 4.86 6.16l1.08.72c4.58 3.1 6.16 5.62 6.16 8.75 0 2.13-.8 4.44-3.5 6.2-1.58 1.05-3.92 1.3-5.97 1.3-1.9.03-4.06-.22-5.6-.94zM326.36 37.54c0 3.5.04 6.38.22 7.85.14 1.07.22 1.76 1.37 1.9.5.07 1.37.18 1.66.18.26 0 .33.18.33.3 0 .17-.22.28-.65.28-2.05 0-4.43-.14-4.65-.14-.18 0-2.6.14-3.7.14-.44 0-.62-.07-.62-.3 0-.13.08-.28.3-.28.32 0 .76-.07 1.12-.18.75-.18.9-.9 1-1.98.2-1.48.2-4.2.2-7.7v-3.65c0-.18-.1-.2-.23-.2H307c-.15 0-.22.02-.22.2v3.64c0 3.5 0 6.28.18 7.8.1 1.07.25 1.76 1.37 1.9.54.07 1.37.18 1.7.18.2 0 .28.18.28.3 0 .17-.18.28-.6.28-2.1 0-4.48-.14-4.66-.14-.2 0-2.6.14-3.74.14-.4 0-.62-.07-.62-.3 0-.13.08-.28.3-.28.36 0 .83-.07 1.15-.18.72-.18.8-.86.98-1.9.2-1.48.2-4.37.2-7.86v-6.4c0-5.63 0-6.68-.06-7.83-.07-1.22-.3-1.83-1.55-2-.3-.04-.94-.08-1.3-.08-.14 0-.28-.18-.28-.3 0-.2.18-.28.6-.28 1.7 0 4.12.08 4.33.08.18 0 2.56-.08 3.7-.08.45 0 .63.08.63.3 0 .14-.18.28-.3.28-.25 0-.5 0-.93.07-1 .2-1.22.7-1.33 2-.04 1.16-.04 2.28-.04 7.9v.76c0 .2.07.2.22.2h15.67c.13 0 .2 0 .2-.2v-.76c0-5.62-.03-6.74-.07-7.9-.07-1.22-.25-1.83-1.47-2-.3-.04-.94-.08-1.3-.08-.18 0-.3-.18-.3-.3 0-.2.2-.28.62-.28 1.66 0 4.1.08 4.25.08.22 0 2.6-.08 3.72-.08.43 0 .64.08.64.3 0 .14-.2.28-.37.28-.25 0-.47 0-.93.07-.98.2-1.2.7-1.3 2-.07 1.16-.07 2.17-.07 7.83v6.4h.03zM157.54 47.4s.54 0 1.23-.06c.68-.07 1-.87 1.12-1.9.06-1.5.06-3.04.06-3.65v-3.1c0-1.95-.25-2.7-.83-3.72-.3-.54-5.37-8.6-6.67-10.55-.9-1.37-1.8-2.17-2.48-2.63-.54-.36-1.3-.5-1.6-.5-.2 0-.38-.2-.38-.33 0-.18.14-.25.47-.25.72 0 3.53.07 3.7.07.26 0 1.8-.08 3.25-.08.43 0 .5.07.5.25 0 .14-.25.25-.6.4-.3.14-.48.28-.48.6 0 .5.25.94.5 1.4l6.85 11.32c.75-1.56 5.47-9.3 6.15-10.5.47-.78.65-1.4.65-1.86 0-.5-.18-.83-.6-.94-.37-.07-.55-.25-.55-.43 0-.15.2-.22.6-.22.98 0 2.32.07 2.6.07.26 0 2.96-.07 3.68-.07.25 0 .47.07.47.22 0 .18-.18.4-.47.4-.43 0-1.15.14-1.77.46-.72.43-1.08.8-1.87 1.8-1.24 1.44-6.53 9.98-7.32 11.53-.65 1.3-.47 2.45-.47 3.64v3.1c0 .6 0 2.12.15 3.64.07 1.08.36 1.76 1.44 1.9.5.08 1.36.2 1.7.2.2 0 .27.17.27.28 0 .18-.2.28-.6.28-2.1 0-4.55-.14-4.76-.14-.17 0-2.62.07-3.74.07"/><path id="Shape" fill="#000" d="M298.95 20.72c0 1.1-.15 3.78-.15 4.2 0 .3-.18.48-.36.48s-.25-.15-.3-.65l-.02-.4c-.15-1.1-.94-1.9-4.54-2l-3-.1V37.5c0 3.5 0 6.38.2 7.86.13 1.08.28 1.76 1.43 1.9.5.08 1.38.2 1.7.2.26 0 .3.17.3.28 0 .18-.2.28-.62.28-2.05 0-4.43-.14-4.65-.14-.18 0-2.77.14-3.9.14-.42 0-.6-.07-.6-.28 0-.15.07-.26.3-.26.3 0 .74-.07 1.1-.18.76-.18.98-.9 1.12-1.94.18-1.48.18-4.36.18-7.86V22.26l-3.7.08c-2.35.03-3.25.28-3.8 1.15-.42.64-.46.9-.6 1.14-.08.3-.22.33-.4.33-.07 0-.25-.08-.25-.3 0-.4.75-3.7.83-4H295l3.97.05zM277.84 20.64c-.72 0-3.43.08-3.68.08-.3 0-1.62-.08-2.6-.08-.4 0-.6.08-.6.22 0 .18.2.32.54.43.43.14.6.42.6.93 0 .47-.17 1.08-.64 1.87-.7 1.2-5.37 8.97-6.16 10.5l-6.8-11.33c-.26-.47-.5-.9-.5-1.4 0-.3.17-.47.45-.6.36-.16.62-.27.62-.4 0-.2-.08-.26-.5-.26-1.45 0-3 .08-3.25.08-.1 0-1.05.04-1.87.04-.9 0-1.7-.04-1.7-.04-.36 0-1.9-.07-3.85-.07-.47 0-.65.08-.65.26 0 .14.14.32.32.32 1.7 0 2.02.44 2.02 1.08 0 .47-.04.9-.44 2.27-1.33 4.65-4.68 15.17-5.62 18.16h-.18L236 22.47c-.46-1.22-.75-1.7-1-1.7-.22 0-.47.22-1 1.66l-7.86 20.3h-.07c-.47-1.5-4.33-14.82-4.9-17.13-.44-1.6-.72-2.9-.72-3.37 0-.47.25-.7.5-.76.43-.2 1-.2 1.33-.2.18 0 .4-.16.4-.34 0-.18-.18-.25-.68-.25-1.88 0-3.6.07-3.93.07-.4 0-1.9-.07-3.86-.07-.3 0-.6.07-.6.25 0 .22.18.33.36.33.25 0 .6.03 1.15.2 1 .37 1.38.84 1.96 2.75l6.66 21.52c.76 2.48 1.1 2.84 1.45 2.84.43 0 .68-.4 1.33-1.9 1.37-3.4 6.45-16.65 7.7-19.82l7.36 19.85c.5 1.4.86 1.86 1.22 1.86.43 0 .65-.43 1.62-3.1 1.48-4.07 5.2-15.56 6.88-20.17.44-1.23.83-2.24 1.34-2.93.14-.2.3-.32.5-.4.1-.03.3-.03.43 0 .33.1.65.26 2.06 2.46 1.27 1.94 6.38 9.98 6.67 10.55.54 1 .83 1.77.83 3.7v3.1c0 .62 0 2.14-.07 3.65-.07 1.08-.33 1.76-1.12 1.9-.3.08-.74.2-1.1.2-.22 0-.3.17-.3.28 0 .22.2.3.62.3 1.12 0 3.5-.15 3.67-.15.2 0 2.62.15 4.75.15.4 0 .6-.15.6-.3 0-.14-.06-.28-.28-.28-.36 0-1.18-.07-1.7-.18-1.1-.18-1.36-.87-1.43-1.9-.14-1.5-.14-3.04-.14-3.65v-3.1c0-1.2-.18-2.35.46-3.65.76-1.55 6.06-10.08 7.32-11.52.8-.98 1.15-1.37 1.87-1.8.6-.33 1.33-.47 1.77-.47.28 0 .46-.22.46-.4-.18-.14-.4-.22-.64-.22zM75.7 32.68L67.97 12.6c-.57-1.5-.75-1.72-1.08-1.72-.3 0-.47.3-1.08 1.87l-10.95 30c-.87 2.43-1.84 4.26-4.07 4.55-.4.04-1.05.1-1.4.1-.26 0-.44.12-.44.3 0 .3.3.4.9.4 2.27 0 4.94-.15 5.48-.15s2.6.15 3.78.15c.43 0 .72-.1.72-.4 0-.18-.14-.3-.47-.3h-.47c-.83 0-1.83-.42-1.83-1.4 0-.86.25-2 .68-3.24l2.92-8.53c.1-.26.25-.4.47-.4H71.5c.26 0 .34.1.44.3l.08.17c3.92 10.52 7.96 25.8 31.77 29.1h.14C85.17 60.07 80.34 43.96 75.7 32.7zm-4.8-.58h-9.22c-.15 0-.25-.1-.15-.32l4.25-13.05c.26-.72.47-.72.72 0l4.58 13.05c.04.18.04.32-.18.32zM158.2 55.62c-21.66 0-31.75 7.46-49.15 8.1 24.86-.5 30.84-4.96 49.14-4.96 19.4 0 50.93 8.25 50.93 8.25s-28.28-11.38-50.94-11.38z"/><path id="Shape" stroke="#000" stroke-width="1.405" d="M.68 17.73c7.8-7.46 39.35-7.46 47.38 0V36.1c-2.2 22.48-23.53 31.27-23.67 31.34-.15.04-21.48-8.82-23.68-31.38V17.73H.68z" stroke-linejoin="round"/><path id="Shape" fill="#FFF7BB" d="M.68 17.73c7.8-7.46 39.35-7.46 47.38 0V36.1c-2.2 22.48-23.53 31.27-23.67 31.34-.15.04-21.48-8.82-23.68-31.38V17.73H.68z"/><path id="Shape" fill="#52AC32" stroke="#000" stroke-width=".5" d="M24.43 32.78L44.3 48.96C37.6 61.8 24.54 67.48 24.4 67.5c-.12.05-13.2-5.35-19.93-18.54l19.96-16.18z"/><path id="Shape" fill="#B31918" d="M17.1 22.77c.26.43.37.58.4 1.3 0 0 1.63-1.7 2.64-4.15l.36-.07c1.2.58 1.58-.18 1.58-.18-1.18.54-1.5-.72-1.4-.94.25-.93.47-1.87 2.2-1.55-.08-.68-.44-.68-1-.68-.48-.04-.98.32-1.3.76l.06-.72c.33-.3.98-.44 1.16-.76-.58-.22-.9.07-1.48.25-.72.25-.6.72-.9 1.08 0 0-.25-.6.43-1.1 0 0-.65-.36-1.04.4-.6 1.14.15 1.6.3 2.48-.22.9-.62 1.26-2 3.9zM23 27.8c.1-.35.08-.92-.18-1.14-.25-.25-1.4-.54-1.4-.54-.3-.6 1.5.04 1.5.04.08-.98-1.2-1.2-1.86-.98-1.5 2.06-3.6.15-3.6-.57-.15-2.52-2.06-3.8-2.7-4.1-.65-.25-1.16-.54-1.16-.54s.97.4 1.8.14c.5-.14 1.66.94 1.88 1.2 0-.08-.08-1.38 0-1.5-.33-.1-1.12.05-1.48-.17-.1-.03-.18-.14-.14-.28 0 0 1.26.2 1.76.14.54-.12.9-.37.76-.7-.04.4-.54.55-1.12.47-.54-.1-1.26-.43-1.26-.43s.54-1 1.37-.36c0-.47.07-.9.2-1 .34-.12.66-.3.66-.3-.96-.32-1.9.33-2.1.18-.23-.14-.23-.25-.62-.25-.5 0-2.3.77-2.3.77-1.78.1-2.32-1.3-2.32-1.3-.68 2.38 1.26 2.3 1.26 2.3-.64.12-1.22 1.1-1.22 1.1.5-.34 1.26-.26 1.15-.23-.5.1-.75 1.05-.68.98.32-.33.75-.33.75-.3 0 .37-.46 2.93-.32 3.2.3.63.9 1.06.94 1.67-2.13 2.08-4.87-1.56-2.02-4.37-3.46-4.93-6.74-3.4-7.78-3.46.86.72 2.48 3.82-.15 5 1.98.5 2 3.32 1.33 4.37 2-.14 3.67 1.55 3.82 2.34 1.22-.36 3.24-1.84 4.46-1.48-.3.04-1.25 1.6-1.25 1.6-2.4 4.1-5.26 4.13-5.55 3.4-.18-.53.83-1.5.4-3.12 0 0 .5-.15 1.23.93 0 0 .25-.42.03-.85-1.04-2.02-4.07-2.27-4.3-1.84.8.12.9.88.9 1.6-.02.54-.24 1.55-.06 1.76.36-1.15 1.44-1.4 1.44-1.4.04 1.47-2.1 1.9-1.73 4.07.12.65.45 1.2 1 1.55 1.28.54 2.55.86 4.67-.22 0 0-.3.3-.47 1.48 0 0-.68-.1-1.4.3 1 .1.9.02 1.08.38.68 1.4-.22 1.52.03 2.02 0 .25-.24-.4-.27-.22-.47.47-1.95.1-2.1.8.15-.07 1.45-.47 2.2.47-.32 1.1.87 1.9.22 2.83-.22.25 1.15-.75 1.15-.75-.03-.62.07-1.2-.25-1.8l.36.03c.66.62 1.5.84 1.34 1.92.5-.22.7-.5.72-1.05-.1-.54-.6-.68-.82-1.04.2-.22 1.04-.14 1.4.6.33-.24.15-.74.18-1.1-.32-.76-1.33-.4-1.98-.7-1.23-.17-.22-.67-.43-1.47-.06-1.26 1.45-1.3 2.13-2.1-.36-1.32-.8-1.75-.43-2.3-.04.12-.18.48.1 1.02.37.65 1.63.2 1.63.2.22.84-1.12 3.47-.43 3.5 0-1.18 2.6-1.72 4.03-2l-.18.46c-.14.47 0 .8.22 1.2.1-1.06.14-1.27.5-1.56.87-1.08 2.1-1.4 3.17-2.27.3-.2.83-.28.87-.68-.35-.2-.86-.07-1.33-.1-.4.14-.72.75-1.15.64.47-.54.94-1.04 1.55-1.3-.18-.46-.76-.06-1-.4-.4-.1-.48.44-.62.7-.3.36-.6 1-1.04.97.15-.43.55-.76.83-1.08l.22-.58c-1.87-.47-.94 1.66-1.77 2.34-.43.05-.9.4-1.33.2.15-.94.5-1.77.43-2.78-.43-1.12-1.94-.25-2.77-.25.98-1.12 3.4-2.34 3.94-4.9-1.05-.36-1.37-.8-1.77-1.48 1 1.36 2.2 1.22 3.2 1.58 0 0-1.1.36-1.18.86 1.43-.76 1.5-.18 2.3-.32.9-.18 1.4.54 1.76 1.44.07-.04.1-.33.14-.8-.2-.8-.64-1.08-.64-1.08.5-.36 1.04.33 1.72.83zm-8.82-9.86c.54-.25.65-.07.65-.07s.04.47-.07.43c-.36-.07-1.18.04-1.18.04s.07-.15.6-.4zM28.06 18.73c.1.26-.2 1.48-1.4.94 0 0 .43.76 1.58.18l.37.07c1.05 2.5 2.63 4.15 2.63 4.15.08-.72.15-.87.4-1.3-1.37-2.67-1.76-3.03-2.05-3.93.14-.86.86-1.33.3-2.48-.4-.76-1.06-.4-1.06-.4.72.5.43 1.12.43 1.12-.28-.33-.14-.8-.9-1.08-.57-.18-.9-.47-1.47-.26.18.33.82.47 1.15.76l.07.72c-.36-.43-.86-.76-1.3-.76-.54 0-.93 0-1 .7 1.8-.3 2 .64 2.26 1.57zM41.8 29.58c-.23.43.03.86.03.86.75-1.08 1.22-.93 1.22-.93-.43 1.66.58 2.6.4 3.14-.33.72-3.14.72-5.55-3.42 0 0-.94-1.52-1.26-1.6 1.22-.38 3.24 1.13 4.47 1.5.15-.8 1.8-2.46 3.82-2.35-.68-1-.68-3.82 1.34-4.36-2.63-1.18-1-4.28-.15-5-1.03.07-4.3-1.48-7.77 3.46 2.85 2.8.1 6.45-2.02 4.36.05-.65.66-1.05.95-1.66.15-.3-.32-2.84-.32-3.2 0-.04.43-.04.75.28.1.1-.18-.86-.68-.97-.14-.04.6-.1 1.15.22 0 0-.57-1.02-1.22-1.1 0 0 1.94.04 1.26-2.3 0 0-.55 1.4-2.32 1.3 0 0-1.8-.76-2.3-.76-.4 0-.4.1-.62.25-.2.14-1.15-.48-2.12-.2 0 0 .32.2.65.3.13.1.2.58.2 1 .83-.64 1.37.37 1.37.37s-.72.32-1.26.43c-.53.1-1.07-.07-1.1-.47-.15.33.2.58.75.7.5.1 1.77-.16 1.77-.16.03.15-.04.22-.15.3-.36.17-1.15.06-1.47.17.03.07 0 1.37 0 1.48.2-.22 1.33-1.33 1.87-1.2.83.26 1.8-.13 1.8-.13s-.5.24-1.15.53c-.65.25-2.56 1.58-2.7 4.1 0 .72-2.1 2.63-3.6.58-.7-.2-1.95 0-1.88.98 0 0 1.8-.68 1.5-.03 0 0-1.14.3-1.4.54-.25.2-.28.78-.17 1.14.68-.5 1.22-1.2 1.8-.86 0 0-.43.28-.65 1.08.04.46.07.75.14.8.33-.9.87-1.63 1.77-1.45.8.15.9-.4 2.3.33-.07-.5-1.18-.86-1.18-.86 1.04-.33 2.2-.18 3.2-1.6-.4.7-.72 1.17-1.76 1.5.56 2.55 2.98 3.77 3.9 4.9-.8 0-2.33-.88-2.76.24-.04 1.02.3 1.85.43 2.8-.43.2-.86-.16-1.33-.2-.87-.68.07-2.8-1.77-2.34l.22.58c.28.36.67.65.82 1.08-.47.04-.8-.6-1.05-.97-.14-.25-.2-.8-.6-.7-.26.34-.84-.1-1.02.4.62.23 1.08.77 1.55 1.3-.43.1-.75-.5-1.15-.64-.43.04-.94-.1-1.33.12.03.4.57.46.86.68 1.05.87 2.3 1.2 3.17 2.27.33.3.36.47.5 1.55.22-.4.4-.72.22-1.2l-.18-.46c1.4.33 4.03.83 4.03 2.02.64-.04-.65-2.67-.44-3.5 0 0 1.26.44 1.62-.2.28-.55.14-.9.1-1.02.36.54-.07.97-.43 2.3.68.8 2.2.83 2.12 2.1-.22.8.8 1.3-.44 1.47-.64.3-1.65-.07-1.98.7.04.35-.14.82.18 1.1.4-.75 1.2-.82 1.4-.6-.2.35-.7.5-.82 1.04.04.54.22.83.72 1.04-.14-1.07.68-1.3 1.33-1.9l.37-.03c-.32.57-.2 1.18-.25 1.8 0 0 1.33 1.04 1.15.75-.68-.93.5-1.73.22-2.84.75-.98 2.04-.54 2.2-.47-.16-.68-1.63-.32-2.1-.78-.04-.22-.3.46-.3.2.26-.5-.64-.56.05-2 .18-.36.03-.3 1.08-.4-.72-.4-1.4-.3-1.4-.3-.22-1.18-.48-1.47-.48-1.47 2.13 1.08 3.4.76 4.7.22.53-.36.85-.86.96-1.55.4-2.16-1.76-2.63-1.72-4.07 0 0 1.12.25 1.44 1.4.15-.2-.03-1.22-.07-1.76 0-.7.1-1.45.9-1.6-.3-.4-3.3-.14-4.36 1.88zM34 18.3c-.1 0-.06-.43-.06-.43s.14-.18.65.07c.53.25.56.43.56.43s-.75-.1-1.15-.07z"/><path id="Shape" fill="#000" d="M4.76 49.28l-.54-.68 20.2-16.4L44.6 48.6l-.58.65-19.6-15.93zM24.46 67.87c-.6 0-3.67-1.62-5.83-3.02C12.43 60.8 1.8 51.73.25 36.13V17.58l.15-.14c7.96-7.64 39.77-7.64 47.95 0l.14.14V36.2c-2.24 22.8-23.8 31.64-24 31.7 0-.03-.04-.03-.04-.03zm-23.3-31.8c1.1 11.34 7.23 19.1 12.17 23.6 5.04 4.57 10.1 6.94 11.02 7.34 1.73-.7 21.2-9.57 23.28-30.9V17.94c-3.68-3.24-12.8-5.37-23.35-5.37s-19.6 2.1-23.16 5.37v18.12h.03z"/><g id="Shape" fill="#fff"><path d="M25.65 56.02c1.2-1.37 4.83-.36 9.08-.14.58 0 1.04 0 1.3.03-.22-.1-.54-.28-.9-.5-.58-.35-1.23-.78-1.55-1.22-.04 0-.18-.03-.44-.07-.28-.02-.68-.1-1.15-.17-.95-.14-2.2-.3-3.43-.3-.8 0-1.6.1-2.23.23-.7.14-1.23.43-1.55.8-.23.24-.37.53-.4.9.3.06 1.25.46 1.25.46zM24.46 54.58c.04-.07.07-.1.15-.18.26-.3.62-.5 1-.65.84-.32 1.9-.43 2.97-.43 2.1 0 4.25.4 4.9.54-.04-.07-.04-.18-.07-.33-.08-.28-.18-.72-.3-1.22-.24-1-.57-2.37-.9-3.74-.64-2.73-1.25-5.44-1.25-5.44l-.04-.03s-.03-.05-.1-.08c-.07-.04-.18-.1-.32-.18-.25-.15-.65-.33-1.08-.5-.87-.37-2.02-.77-2.96-.73-.93 0-1.4.3-1.7.55-.13.14-.24.3-.28.4v12.03zM33.68 53.8c.04.06.04.13.04.13.18.3.6.65 1.05.94.43.3.9.57 1.22.72l-3.76-11.54-1.04-.72c.07.25.14.68.3 1.22.2.9.5 2.1.78 3.35.58 2.5 1.22 5.2 1.4 5.9zM12.43 55.7c.1-.08.25-.15.43-.26.43-.25.97-.57 1.37-.9.25-.2.47-.4.54-.54v-.03c0-.04.04-.1.04-.22.04-.18.1-.43.2-.76.13-.65.35-1.52.56-2.5.47-1.94 1-4.28 1.37-5.83.15-.57.25-1.04.33-1.37l-1.05.8-3.77 11.6zM15.02 53.93c.62-.14 2.78-.54 4.87-.54.82 0 1.6.06 2.3.2.68.2 1.3.44 1.7.87.02.04.02.07.06.1v-12.1c-.04-.07-.1-.18-.22-.28-.3-.3-.76-.6-1.73-.6-.82 0-1.8.3-2.62.6-.83.3-1.5.67-1.76.78-.08.04-.08.04-.1.07-.23.94-1.92 8.18-2.42 10.38 0 .25-.04.4-.08.5zM22.84 56.02c.04 0 .9-.36 1.26-.5-.03-.33-.18-.62-.4-.87-.2-.25-.53-.47-.93-.6-.76-.3-1.8-.44-2.88-.44-1.85 0-3.76.33-4.6.48-.2.03-.35.07-.42.07-.1.18-.33.36-.58.54-.3.2-.6.42-.93.6-.33.18-.62.36-.83.5h.6c4.55-.03 8.48-1.22 9.7.22z"/></g><g id="Shape" fill="#A4A3A4"><path d="M19.53 52.53c-1.4 0-2.02.18-3.6.5.03-.04 1.07-5 1.07-4.97.83-.3 1.9-.5 3-.4 0 0-.5 4.83-.47 4.87zM23.24 50.4c-.54-.32-2.1-.5-2.96-.22l.65-7.78c.47-.1 1.84-.3 2.45.33l-.14 7.67zM20.03 47.37c-1.33-.14-2.05.1-2.95.33.03-.04.86-4.3.86-4.25.76-.4 1.55-.7 2.56-.94 0 0-.43 4.87-.47 4.87zM23.24 52.96c-.83-.33-1.88-.5-3.17-.5 0 0 .18-2.02.18-2.06.86-.36 2.56-.07 2.95.22.04.03.04 2.34.04 2.34zM28.46 49.07c.7-.1 2.5.03 3.24.43-.03-.04-1.26-5.94-1.26-5.9-.86-.48-1.62-.84-2.63-1.1l.66 6.57zM25.1 44.7c.3-.28 1.67-.5 2.5-.2 0 0-.18-2.06-.18-2.1-.47-.1-1.77-.3-2.3.3v2zM25.15 53c1.15-.58 2-.47 3.13-.47-.03-.04-.72-7.82-.72-7.8-.58-.17-1.73-.27-2.45.23.05-.03.08 8.03.05 8.03zM28.82 52.5c.9 0 1.95.1 3.6.4-.03-.05-.68-3.18-.68-3.15-.68-.4-2.85-.54-3.24-.43 0 0 .3 3.17.32 3.17z"/></g><path id="Shape" fill="#010202" d="M36.53 56.17l-4-12.3-1.48-1.03s-.64-.4-1.54-.76c-.9-.4-2.05-.76-3.06-.76-1 0-1.62.33-1.94.65-.1.1-.18.22-.25.33-.08-.1-.15-.22-.26-.33-.33-.32-.94-.65-1.95-.65-1 0-2.16.4-3.1.76-.9.36-1.55.76-1.55.76l-1.44 1.08-4.04 12.25h.04c-.04.03-.07.03-.07.07.02 0 10.83.25 10.87.3.76.67 2.27.7 3.06 0 .04-.05 10.77-.3 10.8-.3 0 0-.03-.04-.1-.07zm-23.96-.3c.22-.1.54-.28.83-.5.33-.18.65-.43.94-.6.25-.2.43-.37.57-.55.05 0 .2-.04.45-.07.83-.15 2.74-.47 4.57-.47 1.08 0 2.1.1 2.88.43.4.16.73.37.94.62.22.22.33.5.4.87-.36.13-1.23.5-1.26.5-1.23-1.45-5.15-.26-9.66-.15l-.65-.07zm13.08.15c-.04 0-.97-.4-1.3-.5.04-.36.18-.7.4-.9.32-.36.9-.65 1.55-.8.68-.14 1.44-.2 2.23-.2 1.23 0 2.5.13 3.43.28.46.07.86.14 1.15.18.26.03.4.07.44.07.32.43.97.86 1.55 1.22.35.22.67.4.9.5-.3 0-.73 0-1.3-.03-4.22-.18-7.86-1.2-9.05.18zm10.38-.43c-.33-.2-.8-.44-1.23-.73-.47-.3-.86-.65-1.04-.94 0-.03-.04-.07-.04-.14-.18-.7-.83-3.4-1.4-5.88-.3-1.27-.58-2.45-.8-3.36-.14-.54-.2-.97-.3-1.22l1.06.72 3.75 11.53zM24.75 42.2c.3-.27.76-.55 1.7-.55.93 0 2.05.36 2.95.72.43.18.83.36 1.08.5.14.07.25.15.32.18.07.04.1.07.1.07l.05.04s.65 2.74 1.26 5.44c.33 1.37.66 2.74.9 3.75.12.5.22.93.3 1.22.03.15.07.25.07.33-.6-.15-2.8-.54-4.9-.54-1.08 0-2.13.1-2.96.43-.38.13-.74.35-1 .64-.03.03-.07.1-.14.18V42.58c.04-.1.15-.25.3-.4zm-5.33.02c.83-.32 1.8-.6 2.63-.57.93 0 1.44.28 1.73.57.1.1.14.18.2.3v12.1c-.02-.04-.02-.08-.06-.1-.4-.44-.97-.73-1.7-.88-.68-.18-1.5-.2-2.3-.2-2.1 0-4.25.38-4.86.53.04-.1.07-.25.1-.47.55-2.2 2.2-9.44 2.42-10.38 0 0 .04-.03.1-.07.26-.14.95-.5 1.74-.83zm-3.17 1.88l1.04-.8c-.08.3-.2.76-.33 1.37-.36 1.55-.9 3.9-1.37 5.84-.22.98-.43 1.85-.58 2.5-.07.32-.14.57-.18.75-.03.07-.03.15-.03.22V54c-.07.15-.28.33-.53.54-.4.33-.94.65-1.37.9-.18.1-.33.18-.43.26l3.78-11.6z"/><path fill="#000" d="M212.48 20.72c0 1.1-.14 3.78-.14 4.2 0 .3-.18.48-.36.48s-.25-.15-.3-.65l-.02-.4c-.15-1.1-.94-1.9-4.54-2l-3-.1V37.5c0 3.5 0 6.38.2 7.86.13 1.08.27 1.76 1.43 1.9.5.08 1.37.2 1.7.2.24 0 .28.17.28.28 0 .18-.18.28-.6.28-2.07 0-4.45-.14-4.66-.14-.18 0-2.78.14-3.9.14-.42 0-.6-.07-.6-.28 0-.15.07-.26.28-.26.33 0 .76-.07 1.12-.18.76-.18.97-.9 1.12-1.94.17-1.48.17-4.36.17-7.86V22.26l-3.7.08c-2.36.03-3.26.28-3.8 1.15-.43.64-.46.9-.6 1.14-.08.3-.22.33-.4.33-.08 0-.26-.08-.26-.3 0-.4.77-3.7.84-4h15.78l3.96.05z"/></g></g></g></g></g></svg>